<svg width="8012" height="1126" viewBox="0 0 8012 1126" fill="none" xmlns="http://www.w3.org/2000/svg">
<g clip-path="url(#clip0_168_9)">
<path d="M1671.43 566.297H1950.07V845.193H1671.43V1124.09H1114.29V845.193H835.644V1124.09H278.784V287.544H557.143V9.2168H835.644V287.686H1114.29V9.2168H1392.93V287.686H1671.43V566.297ZM1950.07 9.2168H1671.43V287.686H1950.07V9.2168ZM0 9.2168V287.686H278.784V9.2168H0Z" fill="#566264"/>
<path d="M2341.02 1067.09C2345.56 1060.43 2349.81 1052.91 2354.21 1045.96C2355.03 1044.46 2356.17 1043.16 2357.55 1042.15C2358.93 1041.14 2360.52 1040.45 2362.2 1040.13C2363.88 1039.8 2365.61 1039.85 2367.27 1040.27C2368.93 1040.69 2370.47 1041.47 2371.79 1042.56C2374.91 1044.97 2414.33 1077.86 2454.04 1077.86C2489.49 1077.86 2512.18 1056.17 2512.18 1030.08C2512.18 999.173 2485.52 979.748 2434.61 959.189C2383.7 938.63 2341.02 909.847 2341.02 850.297C2341.02 810.171 2371.79 755.158 2453.47 755.158C2487.47 755.782 2520.54 766.329 2548.62 785.5C2550.02 786.396 2551.23 787.572 2552.15 788.955C2553.08 790.338 2553.71 791.898 2554 793.537C2554.29 795.175 2554.24 796.857 2553.86 798.475C2553.47 800.093 2552.75 801.614 2551.74 802.94L2538.84 822.507C2538.13 824.133 2537.06 825.582 2535.73 826.75C2534.39 827.918 2532.81 828.777 2531.11 829.265C2529.4 829.752 2527.6 829.857 2525.85 829.571C2524.1 829.285 2522.43 828.616 2520.97 827.611C2517.28 825.484 2481.26 801.947 2451.49 801.947C2408.24 801.947 2393.49 829.17 2393.49 848.17C2393.49 877.52 2416.04 895.527 2458.72 912.967C2518.28 937.07 2569.18 965.428 2569.18 1028.1C2569.18 1081.55 2521.39 1125.22 2454.46 1125.22C2413.97 1125.63 2374.73 1111.21 2344.14 1084.67C2339.46 1079.28 2335.77 1075.74 2341.02 1067.09Z" fill="#566264"/>
<path d="M2743.17 768.911C2743.17 766.34 2744.19 763.873 2745.99 762.043C2747.79 760.212 2750.25 759.165 2752.82 759.128H2958.86C2960.15 759.108 2961.43 759.348 2962.62 759.833C2963.82 760.318 2964.91 761.038 2965.82 761.95C2966.73 762.863 2967.45 763.949 2967.94 765.144C2968.42 766.34 2968.66 767.621 2968.64 768.911V797.268C2968.66 798.558 2968.42 799.839 2967.94 801.035C2967.45 802.23 2966.73 803.316 2965.82 804.229C2964.91 805.141 2963.82 805.861 2962.62 806.346C2961.43 806.831 2960.15 807.071 2958.86 807.051H2796.07V911.974H2933.33C2935.92 912.011 2938.38 913.053 2940.21 914.88C2942.04 916.707 2943.08 919.174 2943.12 921.757V950.115C2943.12 951.393 2942.86 952.658 2942.37 953.837C2941.88 955.016 2941.15 956.086 2940.24 956.983C2939.33 957.88 2938.25 958.587 2937.07 959.063C2935.88 959.539 2934.61 959.775 2933.33 959.756H2796.07V1070.92H2958.86C2960.13 1070.9 2961.4 1071.13 2962.59 1071.61C2963.78 1072.09 2964.86 1072.79 2965.77 1073.69C2966.68 1074.59 2967.4 1075.66 2967.89 1076.84C2968.39 1078.01 2968.64 1079.28 2968.64 1080.56V1108.92C2968.66 1110.21 2968.42 1111.49 2967.94 1112.68C2967.45 1113.88 2966.73 1114.96 2965.82 1115.88C2964.91 1116.79 2963.82 1117.51 2962.62 1117.99C2961.43 1118.48 2960.15 1118.72 2958.86 1118.7H2753.24C2750.67 1118.66 2748.22 1117.61 2746.42 1115.78C2744.61 1113.95 2743.6 1111.49 2743.6 1108.92L2743.17 768.911Z" fill="#566264"/>
<path d="M3306.27 754.023C3352.34 753.944 3396.82 770.856 3431.2 801.522C3432.14 802.446 3432.89 803.549 3433.41 804.766C3433.92 805.984 3434.18 807.291 3434.18 808.611C3434.18 809.932 3433.92 811.239 3433.41 812.456C3432.89 813.673 3432.14 814.776 3431.2 815.7L3407.95 839.946C3403.83 844.625 3399.86 844.058 3394.76 839.946C3370.64 818.314 3339.65 805.908 3307.27 804.925C3272.65 806.053 3239.82 820.597 3215.74 845.482C3191.65 870.367 3178.18 903.643 3178.18 938.275C3178.18 972.908 3191.65 1006.18 3215.74 1031.07C3239.82 1055.95 3272.65 1070.5 3307.27 1071.63C3333.95 1071.56 3360.29 1065.6 3384.41 1054.19V996.621H3334.63C3333.37 996.678 3332.12 996.483 3330.93 996.049C3329.75 995.615 3328.66 994.95 3327.74 994.092C3326.82 993.234 3326.07 992.201 3325.55 991.053C3325.03 989.905 3324.74 988.665 3324.71 987.405V957.487C3324.69 956.185 3324.93 954.893 3325.43 953.687C3325.92 952.482 3326.65 951.389 3327.58 950.475C3328.51 949.561 3329.61 948.844 3330.82 948.368C3332.04 947.891 3333.33 947.666 3334.63 947.704H3428.08C3430.6 947.814 3432.98 948.893 3434.73 950.716C3436.47 952.539 3437.44 954.965 3437.44 957.487C3437.44 998.464 3437.44 1040.72 3437.44 1081.83C3437.11 1084.98 3435.65 1087.91 3433.33 1090.06C3394.46 1112.25 3350.47 1123.93 3305.71 1123.95C3281.4 1123.95 3257.34 1119.16 3234.89 1109.86C3212.44 1100.56 3192.04 1086.93 3174.85 1069.75C3157.67 1052.57 3144.04 1032.17 3134.74 1009.72C3125.44 987.273 3120.65 963.212 3120.65 938.913C3120.65 914.615 3125.44 890.554 3134.74 868.105C3144.04 845.656 3157.67 825.258 3174.85 808.076C3192.04 790.894 3212.44 777.265 3234.89 767.966C3257.34 758.667 3281.4 753.881 3305.71 753.881L3306.27 754.023Z" fill="#566264"/>
<path d="M3617.11 768.91C3617.18 766.337 3618.23 763.891 3620.05 762.072C3621.87 760.252 3624.32 759.198 3626.89 759.126H3661.21C3662.5 759.107 3663.78 759.347 3664.97 759.832C3666.17 760.317 3667.26 761.037 3668.17 761.949C3669.08 762.861 3669.8 763.948 3670.29 765.143C3670.77 766.339 3671.01 767.619 3670.99 768.91V981.59C3670.99 1033.06 3703.89 1073.19 3756.07 1073.19C3808.26 1073.19 3842.29 1033.49 3842.29 982.582V769.902C3842.15 768.518 3842.3 767.12 3842.74 765.799C3843.18 764.477 3843.88 763.263 3844.82 762.233C3845.76 761.204 3846.9 760.382 3848.17 759.823C3849.45 759.263 3850.82 758.978 3852.21 758.984H3886.53C3889.12 759.054 3891.58 760.103 3893.42 761.919C3895.27 763.735 3896.35 766.183 3896.46 768.768V984.851C3896.46 1021.93 3881.73 1057.49 3855.51 1083.71C3829.29 1109.92 3793.72 1124.65 3756.64 1124.65C3719.56 1124.65 3683.99 1109.92 3657.77 1083.71C3631.55 1057.49 3616.82 1021.93 3616.82 984.851L3617.11 768.91Z" fill="#566264"/>
<path d="M4094.84 768.911C4094.84 766.316 4095.87 763.828 4097.7 761.993C4099.54 760.158 4102.03 759.127 4104.62 759.127H4244.44C4259.03 758.978 4273.5 761.707 4287.03 767.159C4300.56 772.611 4312.88 780.678 4323.29 790.899C4333.69 801.12 4341.98 813.293 4347.67 826.721C4353.37 840.15 4356.35 854.569 4356.46 869.154C4355.91 892.212 4348.34 914.553 4334.76 933.198C4321.18 951.842 4302.24 965.905 4280.46 973.509L4351.36 1104.1C4352.15 1105.57 4352.54 1107.23 4352.49 1108.91C4352.44 1110.59 4351.96 1112.22 4351.08 1113.65C4350.21 1115.09 4348.98 1116.27 4347.51 1117.08C4346.04 1117.89 4344.39 1118.3 4342.71 1118.27H4302.58C4300.92 1118.29 4299.28 1117.87 4297.83 1117.05C4296.39 1116.23 4295.19 1115.04 4294.36 1113.59L4226.01 977.338H4148.3V1108.49C4148.23 1111.06 4147.17 1113.51 4145.35 1115.33C4143.53 1117.15 4141.09 1118.2 4138.51 1118.27H4104.62C4102.03 1118.27 4099.54 1117.24 4097.7 1115.41C4095.87 1113.57 4094.84 1111.09 4094.84 1108.49V768.911ZM4240.33 933.951C4257.04 933.617 4272.96 926.752 4284.68 914.827C4296.39 902.901 4302.97 886.863 4303.01 870.147C4302.49 853.832 4295.68 838.352 4283.99 826.957C4272.3 815.562 4256.65 809.138 4240.33 809.036H4148.87V933.951H4240.33Z" fill="#566264"/>
<path d="M4698.07 754.023C4734.67 753.883 4770.5 764.601 4801.01 784.822C4831.52 805.044 4855.35 833.859 4869.48 867.623C4883.61 901.388 4887.41 938.584 4880.4 974.508C4873.39 1010.43 4855.87 1043.47 4830.08 1069.44C4804.28 1095.41 4771.37 1113.15 4735.49 1120.41C4699.61 1127.67 4662.38 1124.13 4628.52 1110.23C4594.65 1096.33 4565.67 1072.71 4545.24 1042.34C4524.8 1011.97 4513.84 976.224 4513.72 939.622C4513.56 915.309 4518.2 891.203 4527.39 868.693C4536.58 846.182 4550.13 825.712 4567.26 808.46C4584.4 791.209 4604.78 777.517 4627.23 768.175C4649.68 758.832 4673.75 754.022 4698.07 754.023ZM4698.07 1072.76C4724.56 1072.87 4750.49 1065.11 4772.57 1050.46C4794.65 1035.81 4811.88 1014.94 4822.07 990.484C4832.26 966.03 4834.95 939.099 4829.81 913.11C4824.67 887.121 4811.92 863.245 4793.19 844.512C4774.45 825.779 4750.57 813.033 4724.58 807.893C4698.59 802.752 4671.66 805.447 4647.2 815.637C4622.74 825.827 4601.86 843.052 4587.21 865.127C4572.56 887.201 4564.8 913.13 4564.92 939.622C4565.03 974.898 4579.09 1008.7 4604.04 1033.64C4628.99 1058.58 4662.79 1072.65 4698.07 1072.76Z" fill="#566264"/>
<path d="M5036.69 1067.09C5041.23 1060.43 5045.34 1052.91 5050.02 1045.96C5050.83 1044.47 5051.96 1043.17 5053.32 1042.16C5054.69 1041.15 5056.27 1040.46 5057.94 1040.13C5059.61 1039.81 5061.33 1039.86 5062.97 1040.28C5064.62 1040.7 5066.16 1041.48 5067.46 1042.56C5070.44 1044.97 5110 1077.86 5149.71 1077.86C5185.16 1077.86 5207.85 1056.17 5207.85 1030.08C5207.85 999.173 5181.05 979.748 5130.14 959.189C5079.23 938.63 5036.69 909.847 5036.69 850.297C5036.69 810.171 5067.46 755.158 5149.14 755.158C5183.13 755.815 5216.2 766.359 5244.29 785.5C5245.68 786.41 5246.87 787.593 5247.78 788.977C5248.69 790.36 5249.31 791.916 5249.61 793.548C5249.9 795.181 5249.85 796.856 5249.48 798.47C5249.1 800.085 5248.4 801.606 5247.41 802.94L5234.51 822.507C5233.78 824.137 5232.7 825.587 5231.35 826.756C5230 827.924 5228.41 828.782 5226.7 829.269C5224.98 829.756 5223.18 829.86 5221.41 829.573C5219.65 829.287 5217.97 828.617 5216.5 827.611C5212.95 825.484 5176.94 801.947 5147.02 801.947C5104.47 801.947 5089.02 829.17 5089.02 848.17C5089.02 877.52 5111.71 895.527 5154.39 912.967C5213.95 937.07 5264.85 965.428 5264.85 1028.1C5264.85 1081.55 5217.07 1125.22 5150.14 1125.22C5109.61 1125.58 5070.34 1111.16 5039.67 1084.67C5035.13 1079.28 5031.45 1075.74 5036.69 1067.09Z" fill="#566264"/>
<path d="M2910.36 264.574V262.731C2910.36 118.25 3023.8 0 3180.92 0C3338.04 0 3450.35 116.832 3450.35 261.172V262.731C3450.35 407.07 3336.9 525.321 3179.79 525.321C3022.67 525.321 2910.36 408.914 2910.36 264.574ZM3333.36 264.574V262.731C3333.36 175.532 3269.41 103.079 3179.5 103.079C3089.6 103.079 3027.21 173.973 3027.21 261.172V262.731C3027.21 349.788 3091.02 422.242 3180.92 422.242C3270.82 422.242 3333.36 351.632 3333.36 264.574Z" fill="#566264"/>
<path d="M3694.67 9.2168H3926.95C3991.47 9.2168 4041.52 27.2237 4074.85 60.6855C4089.5 76.1456 4100.91 94.3889 4108.38 114.335C4115.86 134.281 4119.26 155.525 4118.38 176.809V177.659C4120 212.204 4110.22 246.323 4090.54 274.763C4070.86 303.202 4042.38 324.383 4009.47 335.043L4133.69 516.531H4003.09L3894.76 354.468H3806.98V517.097H3695.24L3694.67 9.2168ZM3919.57 255.784C3974.02 255.784 4004.65 227.426 4004.65 184.04V182.622C4004.65 134.698 3971.19 110.027 3916.74 110.027H3805.85V255.784H3919.57Z" fill="#566264"/>
<path d="M4482.67 112.154H4328.11V9.2168H4748.98V112.154H4594.41V517.097H4482.67V112.154Z" fill="#566264"/>
<path d="M5088.59 5.5293H5191.54L5409.21 517.097H5292.51L5245.99 403.667H5031.16L4984.79 517.097H4871.35L5088.59 5.5293ZM5206.01 304.416L5138.65 139.66L5071.72 304.416H5206.01Z" fill="#566264"/>
<path d="M5632.69 9.2168H5744.43V415.436H5997.69V517.097H5632.69V9.2168Z" fill="#566264"/>
<path d="M6226.99 9.2168H6609.85V108.467H6338.02V211.546H6577.38V310.797H6338.02V417.421H6613.68V516.672H6226.99V9.2168Z" fill="#566264"/>
<path d="M6842.98 432.875L7122.33 106.765H6851.77V8.93262H7265.98V94.0048L6986.06 418.697H7265.41V516.672H6842.98V432.875Z" fill="#566264"/>
<path d="M7691.24 5.5293H7794.33L8012 517.097H7895.15L7848.64 403.667H7633.95L7587.44 517.097H7474L7691.24 5.5293ZM7808.51 304.416L7741.02 139.66L7673.8 304.416H7808.51Z" fill="#566264"/>
<path d="M2338.47 9.2168H2726.87V111.161H2450.78V220.195H2694.25V322.283H2450.78V519.367H2338.47V9.2168Z" fill="#566264"/>
</g>
<defs>
<clipPath id="clip0_168_9">
<rect width="8012" height="1126" fill="white"/>
</clipPath>
</defs>
</svg>
